<svg version="1.1" id="_x32_" xmlns="http://www.w3.org/2000/svg" xmlns:xlink="http://www.w3.org/1999/xlink" width="32px" height="32px" viewBox="0 0 20.48 20.48" xml:space="preserve"><style type="text/css">
	.st0{fill:#000000;}
</style><g><path class="st0" d="M10.24 4.803 5.801 0.51C5.278 0.004 4.504 -0.14 3.834 0.143 3.164 0.428 2.729 1.085 2.729 1.812v10.96a2.72 2.72 0 0 0 0.828 1.954L8.98 19.97c0.703 0.679 1.818 0.679 2.519 0l5.423 -5.244a2.72 2.72 0 0 0 0.828 -1.954v-10.96c0 -0.728 -0.435 -1.384 -1.104 -1.669 -0.67 -0.283 -1.444 -0.139 -1.967 0.366L10.24 4.803zm4.954 7.654a0.904 0.904 0 0 1 -0.276 0.651L10.24 17.632V8.36l0.889 -0.86 3.298 -3.189a0.452 0.452 0 0 1 0.491 -0.091 0.452 0.452 0 0 1 0.276 0.417v7.819z"/></g></svg>