<svg xmlns="http://www.w3.org/2000/svg" version="1.1" xmlns:xlink="http://www.w3.org/1999/xlink" xmlns:svgjs="http://svgjs.dev/svgjs" width="1000" height="207" viewBox="0 0 1000 207"><g transform="matrix(1,0,0,1,-0.6060606060606233,0.4849577956030515)"><svg viewBox="0 0 396 82" data-background-color="#ffbe79" preserveAspectRatio="xMidYMid meet" height="207" width="1000" xmlns="http://www.w3.org/2000/svg" xmlns:xlink="http://www.w3.org/1999/xlink"><g id="tight-bounds" transform="matrix(1,0,0,1,0.2400000000000091,-0.19210888521473635)"><svg viewBox="0 0 395.52 82.38421777042949" height="82.38421777042949" width="395.52"><g><svg viewBox="0 0 534.8853976096426 111.41311458054096" height="82.38421777042949" width="395.52"><g><rect width="3.3610246247972047" height="96.7407651929444" x="127.20587920265385" y="7.336174693798284" fill="#374151" opacity="1" stroke-width="0" stroke="transparent" fill-opacity="1" class="rect-r$-0" data-fill-palette-color="primary" rx="1%" id="r$-0" data-palette-color="#374151"></rect></g><g transform="matrix(1,0,0,1,139.36539760964268,15.397905126543648)"><svg viewBox="0 0 395.5199999999999 80.61730432745367" height="80.61730432745367" width="395.5199999999999"><g id="textblocktransform"><svg viewBox="0 0 395.5199999999999 80.61730432745367" height="80.61730432745367" width="395.5199999999999" id="textblock"><g><svg viewBox="0 0 395.5199999999999 37.2697511911064" height="37.2697511911064" width="395.5199999999999"><g transform="matrix(1,0,0,1,0,0)"><svg width="395.5199999999999" viewBox="2.25 -35 377.78 35.6" height="37.2697511911064" data-palette-color="#374151"><path d="M20.1-35Q27.75-35 32.2-31.18 36.65-27.35 36.65-20.25L36.65-20.25 26.1-20.25Q26.1-23.25 24.53-25 22.95-26.75 20.05-26.75L20.05-26.75Q16.7-26.75 15.13-24.65 13.55-22.55 13.55-18.8L13.55-18.8 13.55-15.6Q13.55-11.9 15.13-9.78 16.7-7.65 19.95-7.65L19.95-7.65Q23.15-7.65 24.8-9.3 26.45-10.95 26.45-13.95L26.45-13.95 36.65-13.95Q36.65-6.9 32.33-3.15 28 0.6 20.1 0.6L20.1 0.6Q11.3 0.6 6.78-3.9 2.25-8.4 2.25-17.2L2.25-17.2Q2.25-26 6.78-30.5 11.3-35 20.1-35L20.1-35ZM76.85 0L65.8 0 65.8-13.05 53.65-13.05 53.65 0 42.6 0 42.6-34.4 53.65-34.4 53.65-21.85 65.8-21.85 65.8-34.4 76.85-34.4 76.85 0ZM119 0L107.3 0 105.85-4.85 93.8-4.85 92.35 0 81.05 0 93.6-34.4 106.45-34.4 119 0ZM99.75-24.8L96.1-12.55 103.55-12.55 99.95-24.8 99.75-24.8ZM150.74-25.6L139.49-25.6 139.49 0 128.44 0 128.44-25.6 117.14-25.6 117.14-34.4 150.74-34.4 150.74-25.6ZM186.84-25.6L175.59-25.6 175.59 0 164.54 0 164.54-25.6 153.24-25.6 153.24-34.4 186.84-34.4 186.84-25.6ZM191.89 0L191.89-34.4 221.64-34.4 221.64-26.15 202.94-26.15 202.94-21.4 218.94-21.4 218.94-13.5 202.94-13.5 202.94-8.25 221.99-8.25 221.99 0 191.89 0ZM260.64-23.85Q260.64-20.7 258.94-18.15 257.24-15.6 253.99-14.4L253.99-14.4 261.64 0 249.24 0 243.14-12.55 239.04-12.55 239.04 0 227.99 0 227.99-34.4 249.04-34.4Q252.74-34.4 255.36-32.98 257.99-31.55 259.31-29.13 260.64-26.7 260.64-23.85L260.64-23.85ZM249.39-23.4Q249.39-24.75 248.49-25.65 247.59-26.55 246.29-26.55L246.29-26.55 239.04-26.55 239.04-20.2 246.29-20.2Q247.59-20.2 248.49-21.13 249.39-22.05 249.39-23.4L249.39-23.4ZM289.78-34.4Q292.38-34.4 294.56-33.33 296.73-32.25 298.01-30.3 299.28-28.35 299.28-25.95L299.28-25.95Q299.28-19.6 293.53-17.95L293.53-17.95 293.53-17.75Q300.08-16.25 300.08-9.15L300.08-9.15Q300.08-6.45 298.76-4.38 297.43-2.3 295.13-1.15 292.83 0 290.08 0L290.08 0 266.88 0 266.88-34.4 289.78-34.4ZM277.93-26.85L277.93-21 285.53-21Q286.63-21 287.36-21.78 288.08-22.55 288.08-23.7L288.08-23.7 288.08-24.2Q288.08-25.3 287.33-26.08 286.58-26.85 285.53-26.85L285.53-26.85 277.93-26.85ZM277.93-13.9L277.93-8 286.33-8Q287.43-8 288.16-8.78 288.88-9.55 288.88-10.7L288.88-10.7 288.88-11.2Q288.88-12.35 288.16-13.13 287.43-13.9 286.33-13.9L286.33-13.9 277.93-13.9ZM322.88-35Q331.78-35 336.63-30.45 341.48-25.9 341.48-17.2L341.48-17.2Q341.48-8.5 336.63-3.95 331.78 0.6 322.88 0.6L322.88 0.6Q313.98 0.6 309.16-3.93 304.33-8.45 304.33-17.2L304.33-17.2Q304.33-25.95 309.16-30.48 313.98-35 322.88-35L322.88-35ZM322.88-26.75Q319.33-26.75 317.48-24.6 315.63-22.45 315.63-18.8L315.63-18.8 315.63-15.6Q315.63-11.95 317.48-9.8 319.33-7.65 322.88-7.65L322.88-7.65Q326.43-7.65 328.31-9.8 330.18-11.95 330.18-15.6L330.18-15.6 330.18-18.8Q330.18-22.45 328.31-24.6 326.43-26.75 322.88-26.75L322.88-26.75ZM367.73-18.15L380.03 0 366.63 0 360.28-10.7 360.08-10.7 353.73 0 341.33 0 353.63-18.2 342.53-34.4 355.88-34.4 361.08-25.6 361.28-25.6 366.53-34.4 378.88-34.4 367.73-18.15Z" opacity="1" transform="matrix(1,0,0,1,0,0)" fill="#374151" class="wordmark-text-0" data-fill-palette-color="primary" id="text-0"></path></svg></g></svg></g><g transform="matrix(1,0,0,1,0,46.068244973298036)"><svg viewBox="0 0 166.8184706891029 34.54905935415563" height="34.54905935415563" width="166.8184706891029"><g transform="matrix(1,0,0,1,0,0)"><svg width="166.8184706891029" viewBox="1.65 -35.7 230.76999999999998 47.800000000000004" height="34.54905935415563" data-palette-color="#374151"><path d="M11.6 0.7Q9.15 0.7 6.48 0.13 3.8-0.45 2.1-1.25L2.1-1.25 2.75-6.25Q4.75-5 7.2-4.23 9.65-3.45 12.05-3.45L12.05-3.45Q15.15-3.45 16.9-4.73 18.65-6 18.65-8.45L18.65-8.45Q18.65-10.2 17.82-11.45 17-12.7 15.45-13.68 13.9-14.65 11.1-15.9L11.1-15.9Q7.8-17.4 5.88-18.65 3.95-19.9 2.8-21.75 1.65-23.6 1.65-26.35L1.65-26.35Q1.65-29.15 3.1-31.28 4.55-33.4 7.18-34.55 9.8-35.7 13.15-35.7L13.15-35.7Q15.7-35.7 17.98-35.15 20.25-34.6 21.85-33.8L21.85-33.8 21.35-29.1Q17.2-31.55 12.9-31.55L12.9-31.55Q10-31.55 8.35-30.35 6.7-29.15 6.7-26.65L6.7-26.65Q6.7-24.95 7.58-23.83 8.45-22.7 10-21.83 11.55-20.95 14.7-19.5L14.7-19.5Q19.4-17.4 21.55-14.98 23.7-12.55 23.7-8.9L23.7-8.9Q23.7-4.45 20.45-1.88 17.2 0.7 11.6 0.7L11.6 0.7ZM34.3 0.5Q31.45 0.5 30.07-1.2 28.7-2.9 28.7-5.35L28.7-5.35 28.7-21.05 25.3-21.05 25.7-24.5 28.7-24.5 28.7-30.55 33.05-31 33.05-24.5 38.35-24.5 38.35-21.05 33.05-21.05 33.05-7.1Q33.05-4.85 33.87-3.95 34.7-3.05 36.75-3.05L36.75-3.05 38.3-3.05 37.9 0.5 34.3 0.5ZM46.95 0.5Q44.15 0.5 42.35-1.5 40.55-3.5 40.55-6.6L40.55-6.6Q40.55-11.2 44.4-13.23 48.25-15.25 53-15.35L53-15.35Q53-18.55 52.05-19.8 51.1-21.05 48.85-21.05L48.85-21.05Q45.95-21.05 42.95-18.8L42.95-18.8 42.4-22.45Q45.55-25 49.7-25L49.7-25Q53.65-25 55.55-22.73 57.45-20.45 57.45-15.4L57.45-15.4 57.45-8.25Q57.45-5.4 57.85-4.23 58.25-3.05 59.6-3.05L59.6-3.05 60.15-3.05 59.6 0.5 58.65 0.5Q56.35 0.5 55.25-0.35 54.15-1.2 53.45-3.1L53.45-3.1Q52.3-1.45 50.6-0.48 48.9 0.5 46.95 0.5L46.95 0.5ZM48.3-3.05Q49.5-3.05 50.8-3.98 52.1-4.9 53-6.4L53-6.4 53-12.25Q49.15-12.05 47.15-10.78 45.15-9.5 45.15-6.85L45.15-6.85Q45.15-3.05 48.3-3.05L48.3-3.05ZM64.49 12.1L69.39-1.1 60.44-24.5 65.09-24.5 71.64-6.25 77.64-24.5 82.29-24.5 69.14 12.1 64.49 12.1ZM104.79 0.5Q99.19 0.5 96.29-3.03 93.39-6.55 93.39-12.1L93.39-12.1Q93.39-17.85 96.29-21.43 99.19-25 104.89-25L104.89-25Q107.94-25 110.34-23.75L110.34-23.75 109.64-19.9Q107.39-21.1 104.94-21.1L104.94-21.1Q101.59-21.1 99.71-18.78 97.84-16.45 97.84-12.3L97.84-12.3Q97.84-8.15 99.76-5.75 101.69-3.35 105.09-3.35L105.09-3.35Q107.69-3.35 109.69-4.55L109.69-4.55 110.29-0.65Q109.29-0.15 107.79 0.18 106.29 0.5 104.79 0.5L104.79 0.5ZM127.44-24.5L131.79-24.5 131.79 0 128.09 0 127.79-3Q126.79-1.35 125.09-0.43 123.39 0.5 121.34 0.5L121.34 0.5Q117.49 0.5 115.61-2.08 113.74-4.65 113.74-9.45L113.74-9.45 113.74-24.5 118.09-24.5 118.09-10Q118.09-6.7 119.06-5.08 120.04-3.45 122.34-3.45L122.34-3.45Q123.94-3.45 125.24-4.35 126.54-5.25 127.44-6.85L127.44-6.85 127.44-24.5ZM138.03 0L138.03-24.5 141.58-24.5 142.13-20.4Q143.78-22.8 145.26-23.9 146.73-25 148.38-25L148.38-25Q149.03-25 149.53-24.85L149.53-24.85 149.08-19.9Q148.43-20.05 147.58-20.05L147.58-20.05Q145.93-20.05 144.48-19.23 143.03-18.4 142.38-17.3L142.38-17.3 142.38 0 138.03 0ZM152.83-30.05L152.83-35 157.18-35 157.18-30.05 152.83-30.05ZM152.83 0L152.83-24.5 157.18-24.5 157.18 0 152.83 0ZM171.98 0.5Q168.68 0.5 166.28-1.18 163.88-2.85 162.6-5.75 161.33-8.65 161.33-12.25L161.33-12.25Q161.33-15.85 162.6-18.75 163.88-21.65 166.28-23.33 168.68-25 171.98-25L171.98-25Q175.23-25 177.63-23.33 180.03-21.65 181.28-18.75 182.53-15.85 182.53-12.25L182.53-12.25Q182.53-8.65 181.28-5.75 180.03-2.85 177.63-1.18 175.23 0.5 171.98 0.5L171.98 0.5ZM171.98-3.35Q174.88-3.35 176.48-5.7 178.08-8.05 178.08-12.25L178.08-12.25Q178.08-16.45 176.48-18.78 174.88-21.1 171.98-21.1L171.98-21.1Q168.98-21.1 167.38-18.78 165.78-16.45 165.78-12.25L165.78-12.25Q165.78-8 167.38-5.68 168.98-3.35 171.98-3.35L171.98-3.35ZM199.72-24.5L204.07-24.5 204.07 0 200.38 0 200.07-3Q199.07-1.35 197.38-0.43 195.67 0.5 193.63 0.5L193.63 0.5Q189.78 0.5 187.9-2.08 186.03-4.65 186.03-9.45L186.03-9.45 186.03-24.5 190.38-24.5 190.38-10Q190.38-6.7 191.35-5.08 192.32-3.45 194.63-3.45L194.63-3.45Q196.22-3.45 197.53-4.35 198.82-5.25 199.72-6.85L199.72-6.85 199.72-24.5ZM216.57 0.5Q212.27 0.5 209.12-1.5L209.12-1.5 209.67-5.9Q212.87-3.4 216.27-3.4L216.27-3.4Q218.07-3.4 219.1-4.15 220.12-4.9 220.12-6.35L220.12-6.35Q220.12-7.45 219.65-8.15 219.17-8.85 218.07-9.5 216.97-10.15 214.67-11.2L214.67-11.2Q211.97-12.45 210.72-14.05 209.47-15.65 209.47-18.2L209.47-18.2Q209.47-21.2 211.57-23.1 213.67-25 217.22-25L217.22-25Q220.82-25 223.52-23.4L223.52-23.4 222.97-19.35Q221.62-20.25 220.42-20.68 219.22-21.1 217.57-21.1L217.57-21.1Q215.82-21.1 214.82-20.35 213.82-19.6 213.82-18.25L213.82-18.25Q213.82-16.9 214.7-16.2 215.57-15.5 218.12-14.35L218.12-14.35Q221.67-12.75 223.12-11.13 224.57-9.5 224.57-6.85L224.57-6.85Q224.57-3.4 222.42-1.45 220.27 0.5 216.57 0.5L216.57 0.5ZM227.47 0L227.47-5.25 232.42-5.25 232.42 0 227.47 0Z" opacity="1" transform="matrix(1,0,0,1,0,0)" fill="#374151" class="slogan-text-1" data-fill-palette-color="secondary" id="text-1"></path></svg></g></svg></g></svg></g></svg></g><g><svg viewBox="0 0 118.40738542046222 111.41311458054096" height="111.41311458054096" width="118.40738542046222"><g><svg xmlns="http://www.w3.org/2000/svg" xmlns:xlink="http://www.w3.org/1999/xlink" version="1.1" x="0" y="0" viewBox="-897.1 505.28928571428565 76.00000000000011 71.5107142857143" style="enable-background:new -909 491 100 100;" xml:space="preserve" height="111.41311458054096" width="118.40738542046222" class="icon-icon-0" data-fill-palette-color="accent" id="icon-0"><path d="M-835.6 507.5c-7.7-1.4-15.6-2.2-23.4-2.2-7.7-0.1-15.6 0.5-23.4 1.8-5.7 1-11.4 6.5-12.6 12.3-1.4 7.2-2.1 14.4-2.1 21.6s0.7 14.4 2.1 21.7c1.2 5.7 6.8 11.2 12.6 12.3 7.3 1.2 14.8 1.8 22.1 1.8 0.4 0 0.8 0 1.2 0 7.8-0.1 15.6-0.8 23.4-2.2 0 0 0 0 0 0 5.7-1.1 11.3-6.6 12.5-12.3 1.4-7 2.1-14.2 2.1-21.2 0-7-0.7-14.2-2.1-21.2C-824.3 514.1-829.9 508.6-835.6 507.5zM-830 560.8c-0.6 2.8-4 6.2-6.9 6.8-7.3 1.3-14.8 2.1-22.1 2.1-7.4 0.1-14.8-0.5-22.1-1.7-2.9-0.5-6.3-3.9-6.9-6.7-1.3-6.7-2-13.5-2-20.3 0-6.7 0.7-13.6 2-20.2 0.6-2.9 4-6.3 6.9-6.8 7-1.1 14-1.7 21-1.7 0.4 0 0.8 0 1.2 0 7.4 0.1 14.8 0.8 22.1 2.1 2.9 0.6 6.4 3.9 6.9 6.7 1.3 6.6 1.9 13.3 1.9 19.9C-828 547.6-828.7 554.3-830 560.8z" fill="#374151" data-fill-palette-color="accent"></path><path d="M-841.4 526.3l-3.3-1.4c-1.8-0.8-3.8 0-4.6 1.8-0.8 1.8 0 3.8 1.8 4.6l3.3 1.4c0.5 0.2 0.9 0.3 1.4 0.3 1.3 0 2.6-0.8 3.2-2.1C-838.8 529.2-839.6 527.1-841.4 526.3z" fill="#374151" data-fill-palette-color="accent"></path><path d="M-870.5 531.3c1.8-0.8 2.6-2.8 1.8-4.6-0.8-1.8-2.8-2.6-4.6-1.8l-3.3 1.4c-1.8 0.8-2.6 2.8-1.8 4.6 0.6 1.3 1.9 2.1 3.2 2.1 0.5 0 0.9-0.1 1.4-0.3L-870.5 531.3z" fill="#374151" data-fill-palette-color="accent"></path><path d="M-842.6 547.6c-0.7-1.8-2.8-2.6-4.6-1.9l-11.2 4.6-11.1-4.7c-1.8-0.8-3.8 0.1-4.6 1.9-0.7 1.8 0.1 3.8 1.9 4.6l4.7 2-4.7 1.9c-1.8 0.7-2.6 2.8-1.9 4.6 0.6 1.4 1.9 2.2 3.2 2.2 0.4 0 0.9-0.1 1.3-0.3l11.2-4.6 11.1 4.7c0.4 0.2 0.9 0.3 1.4 0.3 1.4 0 2.7-0.8 3.2-2.1 0.7-1.8-0.1-3.8-1.9-4.6l-4.7-2 4.7-1.9C-842.8 551.4-841.9 549.4-842.6 547.6z" fill="#374151" data-fill-palette-color="accent"></path></svg></g></svg></g></svg></g><defs></defs></svg><rect width="395.52" height="82.38421777042949" fill="none" stroke="none" visibility="hidden"></rect></g></svg></g></svg>