<svg xmlns="http://www.w3.org/2000/svg" version="1.1" xmlns:xlink="http://www.w3.org/1999/xlink" xmlns:svgjs="http://svgjs.dev/svgjs" width="1000" height="999" viewBox="0 0 1000 999"><g transform="matrix(1,0,0,1,-0.215743440233382,-0.21552769679306039)"><svg viewBox="0 0 343 343" data-background-color="#ffbe79" preserveAspectRatio="xMidYMid meet" height="999" width="1000" xmlns="http://www.w3.org/2000/svg" xmlns:xlink="http://www.w3.org/1999/xlink"><g id="tight-bounds" transform="matrix(1,0,0,1,0.0740000000000407,0.07400000000001228)"><svg viewBox="0 0 342.85155851775386 342.85155851775386" height="342.85155851775386" width="342.85155851775386"><g><svg></svg></g><g><svg viewBox="0 0 342.85155851775386 342.85155851775386" height="342.85155851775386" width="342.85155851775386"><g><path d="M0 171.426c0-94.676 76.75-171.426 171.426-171.426 94.676 0 171.426 76.75 171.426 171.426 0 94.676-76.75 171.426-171.426 171.426-94.676 0-171.426-76.75-171.426-171.426zM171.426 341.04c93.675 0 169.614-75.939 169.614-169.614 0-93.675-75.939-169.614-169.614-169.615-93.675 0-169.614 75.939-169.615 169.615 0 93.675 75.939 169.614 169.615 169.614z" data-fill-palette-color="tertiary" fill="#374151" stroke="transparent"></path><ellipse rx="164.56874808852186" ry="164.56874808852186" cx="171.42577925887693" cy="171.42577925887693" fill="#374151" stroke="transparent" stroke-width="0" fill-opacity="1" data-fill-palette-color="tertiary"></ellipse></g><g transform="matrix(1,0,0,1,64.84655864529837,124.70118174930138)"><svg viewBox="0 0 213.1584412271571 93.44919501915109" height="93.44919501915109" width="213.1584412271571"><g><svg viewBox="0 0 213.1584412271571 93.44919501915109" height="93.44919501915109" width="213.1584412271571"><g><svg viewBox="0 0 213.1584412271571 93.44919501915109" height="93.44919501915109" width="213.1584412271571"><g transform="matrix(1,0,0,1,0,56.208471295673334)"><svg viewBox="0 0 213.1584412271571 37.24072372347776" height="37.24072372347776" width="213.1584412271571"><g id="textblocktransform"><svg viewBox="0 0 213.1584412271571 37.24072372347776" height="37.24072372347776" width="213.1584412271571" id="textblock"><g><svg viewBox="0 0 213.1584412271571 20.08586688111909" height="20.08586688111909" width="213.1584412271571"><g transform="matrix(1,0,0,1,0,0)"><svg width="213.1584412271571" viewBox="2.25 -35 377.78 35.6" height="20.08586688111909" data-palette-color="#ffbe79"><path d="M20.1-35Q27.75-35 32.2-31.18 36.65-27.35 36.65-20.25L36.65-20.25 26.1-20.25Q26.1-23.25 24.53-25 22.95-26.75 20.05-26.75L20.05-26.75Q16.7-26.75 15.13-24.65 13.55-22.55 13.55-18.8L13.55-18.8 13.55-15.6Q13.55-11.9 15.13-9.78 16.7-7.65 19.95-7.65L19.95-7.65Q23.15-7.65 24.8-9.3 26.45-10.95 26.45-13.95L26.45-13.95 36.65-13.95Q36.65-6.9 32.33-3.15 28 0.6 20.1 0.6L20.1 0.6Q11.3 0.6 6.78-3.9 2.25-8.4 2.25-17.2L2.25-17.2Q2.25-26 6.78-30.5 11.3-35 20.1-35L20.1-35ZM76.85 0L65.8 0 65.8-13.05 53.65-13.05 53.65 0 42.6 0 42.6-34.4 53.65-34.4 53.65-21.85 65.8-21.85 65.8-34.4 76.85-34.4 76.85 0ZM119 0L107.3 0 105.85-4.85 93.8-4.85 92.35 0 81.05 0 93.6-34.4 106.45-34.4 119 0ZM99.75-24.8L96.1-12.55 103.55-12.55 99.95-24.8 99.75-24.8ZM150.74-25.6L139.49-25.6 139.49 0 128.44 0 128.44-25.6 117.14-25.6 117.14-34.4 150.74-34.4 150.74-25.6ZM186.84-25.6L175.59-25.6 175.59 0 164.54 0 164.54-25.6 153.24-25.6 153.24-34.4 186.84-34.4 186.84-25.6ZM191.89 0L191.89-34.4 221.64-34.4 221.64-26.15 202.94-26.15 202.94-21.4 218.94-21.4 218.94-13.5 202.94-13.5 202.94-8.25 221.99-8.25 221.99 0 191.89 0ZM260.64-23.85Q260.64-20.7 258.94-18.15 257.24-15.6 253.99-14.4L253.99-14.4 261.64 0 249.24 0 243.14-12.55 239.04-12.55 239.04 0 227.99 0 227.99-34.4 249.04-34.4Q252.74-34.4 255.36-32.98 257.99-31.55 259.31-29.13 260.64-26.7 260.64-23.85L260.64-23.85ZM249.39-23.4Q249.39-24.75 248.49-25.65 247.59-26.55 246.29-26.55L246.29-26.55 239.04-26.55 239.04-20.2 246.29-20.2Q247.59-20.2 248.49-21.13 249.39-22.05 249.39-23.4L249.39-23.4ZM289.78-34.4Q292.38-34.4 294.56-33.33 296.73-32.25 298.01-30.3 299.28-28.35 299.28-25.95L299.28-25.95Q299.28-19.6 293.53-17.95L293.53-17.95 293.53-17.75Q300.08-16.25 300.08-9.15L300.08-9.15Q300.08-6.45 298.76-4.38 297.43-2.3 295.13-1.15 292.83 0 290.08 0L290.08 0 266.88 0 266.88-34.4 289.78-34.4ZM277.93-26.85L277.93-21 285.53-21Q286.63-21 287.36-21.78 288.08-22.55 288.08-23.7L288.08-23.7 288.08-24.2Q288.08-25.3 287.33-26.08 286.58-26.85 285.53-26.85L285.53-26.85 277.93-26.85ZM277.93-13.9L277.93-8 286.33-8Q287.43-8 288.16-8.78 288.88-9.55 288.88-10.7L288.88-10.7 288.88-11.2Q288.88-12.35 288.16-13.13 287.43-13.9 286.33-13.9L286.33-13.9 277.93-13.9ZM322.88-35Q331.78-35 336.63-30.45 341.48-25.9 341.48-17.2L341.48-17.2Q341.48-8.5 336.63-3.95 331.78 0.6 322.88 0.6L322.88 0.6Q313.98 0.6 309.16-3.93 304.33-8.45 304.33-17.2L304.33-17.2Q304.33-25.95 309.16-30.48 313.98-35 322.88-35L322.88-35ZM322.88-26.75Q319.33-26.75 317.48-24.6 315.63-22.45 315.63-18.8L315.63-18.8 315.63-15.6Q315.63-11.95 317.48-9.8 319.33-7.65 322.88-7.65L322.88-7.65Q326.43-7.65 328.31-9.8 330.18-11.95 330.18-15.6L330.18-15.6 330.18-18.8Q330.18-22.45 328.31-24.6 326.43-26.75 322.88-26.75L322.88-26.75ZM367.73-18.15L380.03 0 366.63 0 360.28-10.7 360.08-10.7 353.73 0 341.33 0 353.63-18.2 342.53-34.4 355.88-34.4 361.08-25.6 361.28-25.6 366.53-34.4 378.88-34.4 367.73-18.15Z" opacity="1" transform="matrix(1,0,0,1,0,0)" fill="#ffbe79" class="wordmark-text-0" data-fill-palette-color="quaternary" id="text-0"></path></svg></g></svg></g><g transform="matrix(1,0,0,1,0,24.827657990946165)"><svg viewBox="0 0 213.1584412271571 12.4130657325316" height="12.4130657325316" width="213.1584412271571"><g transform="matrix(1,0,0,1,0,0)"><svg width="213.1584412271571" viewBox="1.65 -35.7 820.83 47.800000000000004" height="12.4130657325316" data-palette-color="#ffbe79"><path d="M11.6 0.7Q9.15 0.7 6.48 0.13 3.8-0.45 2.1-1.25L2.1-1.25 2.75-6.25Q4.75-5 7.2-4.23 9.65-3.45 12.05-3.45L12.05-3.45Q15.15-3.45 16.9-4.73 18.65-6 18.65-8.45L18.65-8.45Q18.65-10.2 17.82-11.45 17-12.7 15.45-13.68 13.9-14.65 11.1-15.9L11.1-15.9Q7.8-17.4 5.88-18.65 3.95-19.9 2.8-21.75 1.65-23.6 1.65-26.35L1.65-26.35Q1.65-29.15 3.1-31.28 4.55-33.4 7.18-34.55 9.8-35.7 13.15-35.7L13.15-35.7Q15.7-35.7 17.98-35.15 20.25-34.6 21.85-33.8L21.85-33.8 21.35-29.1Q17.2-31.55 12.9-31.55L12.9-31.55Q10-31.55 8.35-30.35 6.7-29.15 6.7-26.65L6.7-26.65Q6.7-24.95 7.58-23.83 8.45-22.7 10-21.83 11.55-20.95 14.7-19.5L14.7-19.5Q19.4-17.4 21.55-14.98 23.7-12.55 23.7-8.9L23.7-8.9Q23.7-4.45 20.45-1.88 17.2 0.7 11.6 0.7L11.6 0.7ZM83.47 0.5Q80.62 0.5 79.24-1.2 77.87-2.9 77.87-5.35L77.87-5.35 77.87-21.05 74.47-21.05 74.87-24.5 77.87-24.5 77.87-30.55 82.22-31 82.22-24.5 87.52-24.5 87.52-21.05 82.22-21.05 82.22-7.1Q82.22-4.85 83.04-3.95 83.87-3.05 85.92-3.05L85.92-3.05 87.47-3.05 87.07 0.5 83.47 0.5ZM145.29 0.5Q142.49 0.5 140.69-1.5 138.89-3.5 138.89-6.6L138.89-6.6Q138.89-11.2 142.74-13.23 146.59-15.25 151.34-15.35L151.34-15.35Q151.34-18.55 150.39-19.8 149.44-21.05 147.19-21.05L147.19-21.05Q144.29-21.05 141.29-18.8L141.29-18.8 140.74-22.45Q143.89-25 148.04-25L148.04-25Q151.99-25 153.89-22.73 155.79-20.45 155.79-15.4L155.79-15.4 155.79-8.25Q155.79-5.4 156.19-4.23 156.59-3.05 157.94-3.05L157.94-3.05 158.49-3.05 157.94 0.5 156.99 0.5Q154.69 0.5 153.59-0.35 152.49-1.2 151.79-3.1L151.79-3.1Q150.64-1.45 148.94-0.48 147.24 0.5 145.29 0.5L145.29 0.5ZM146.64-3.05Q147.84-3.05 149.14-3.98 150.44-4.9 151.34-6.4L151.34-6.4 151.34-12.25Q147.49-12.05 145.49-10.78 143.49-9.5 143.49-6.85L143.49-6.85Q143.49-3.05 146.64-3.05L146.64-3.05ZM212.01 12.1L216.91-1.1 207.96-24.5 212.61-24.5 219.16-6.25 225.16-24.5 229.81-24.5 216.66 12.1 212.01 12.1ZM350.64 0.5Q345.04 0.5 342.14-3.03 339.24-6.55 339.24-12.1L339.24-12.1Q339.24-17.85 342.14-21.43 345.04-25 350.74-25L350.74-25Q353.79-25 356.19-23.75L356.19-23.75 355.49-19.9Q353.24-21.1 350.79-21.1L350.79-21.1Q347.44-21.1 345.57-18.78 343.69-16.45 343.69-12.3L343.69-12.3Q343.69-8.15 345.62-5.75 347.54-3.35 350.94-3.35L350.94-3.35Q353.54-3.35 355.54-4.55L355.54-4.55 356.14-0.65Q355.14-0.15 353.64 0.18 352.14 0.5 350.64 0.5L350.64 0.5ZM422.46-24.5L426.81-24.5 426.81 0 423.11 0 422.81-3Q421.81-1.35 420.11-0.43 418.41 0.5 416.36 0.5L416.36 0.5Q412.51 0.5 410.64-2.08 408.76-4.65 408.76-9.45L408.76-9.45 408.76-24.5 413.11-24.5 413.11-10Q413.11-6.7 414.09-5.08 415.06-3.45 417.36-3.45L417.36-3.45Q418.96-3.45 420.26-4.35 421.56-5.25 422.46-6.85L422.46-6.85 422.46-24.5ZM482.23 0L482.23-24.5 485.78-24.5 486.33-20.4Q487.98-22.8 489.46-23.9 490.93-25 492.58-25L492.58-25Q493.23-25 493.73-24.85L493.73-24.85 493.28-19.9Q492.63-20.05 491.78-20.05L491.78-20.05Q490.13-20.05 488.68-19.23 487.23-18.4 486.58-17.3L486.58-17.3 486.58 0 482.23 0ZM546.2-30.05L546.2-35 550.55-35 550.55-30.05 546.2-30.05ZM546.2 0L546.2-24.5 550.55-24.5 550.55 0 546.2 0ZM614.52 0.5Q611.22 0.5 608.82-1.18 606.42-2.85 605.14-5.75 603.87-8.65 603.87-12.25L603.87-12.25Q603.87-15.85 605.14-18.75 606.42-21.65 608.82-23.33 611.22-25 614.52-25L614.52-25Q617.77-25 620.17-23.33 622.57-21.65 623.82-18.75 625.07-15.85 625.07-12.25L625.07-12.25Q625.07-8.65 623.82-5.75 622.57-2.85 620.17-1.18 617.77 0.5 614.52 0.5L614.52 0.5ZM614.52-3.35Q617.42-3.35 619.02-5.7 620.62-8.05 620.62-12.25L620.62-12.25Q620.62-16.45 619.02-18.78 617.42-21.1 614.52-21.1L614.52-21.1Q611.52-21.1 609.92-18.78 608.32-16.45 608.32-12.25L608.32-12.25Q608.32-8 609.92-5.68 611.52-3.35 614.52-3.35L614.52-3.35ZM691.44-24.5L695.79-24.5 695.79 0 692.09 0 691.79-3Q690.79-1.35 689.09-0.43 687.39 0.5 685.34 0.5L685.34 0.5Q681.49 0.5 679.61-2.08 677.74-4.65 677.74-9.45L677.74-9.45 677.74-24.5 682.09-24.5 682.09-10Q682.09-6.7 683.06-5.08 684.04-3.45 686.34-3.45L686.34-3.45Q687.94-3.45 689.24-4.35 690.54-5.25 691.44-6.85L691.44-6.85 691.44-24.5ZM757.46 0.5Q753.16 0.5 750.01-1.5L750.01-1.5 750.56-5.9Q753.76-3.4 757.16-3.4L757.16-3.4Q758.96-3.4 759.98-4.15 761.01-4.9 761.01-6.35L761.01-6.35Q761.01-7.45 760.53-8.15 760.06-8.85 758.96-9.5 757.86-10.15 755.56-11.2L755.56-11.2Q752.86-12.45 751.61-14.05 750.36-15.65 750.36-18.2L750.36-18.2Q750.36-21.2 752.46-23.1 754.56-25 758.11-25L758.11-25Q761.71-25 764.41-23.4L764.41-23.4 763.86-19.35Q762.51-20.25 761.31-20.68 760.11-21.1 758.46-21.1L758.46-21.1Q756.71-21.1 755.71-20.35 754.71-19.6 754.71-18.25L754.71-18.25Q754.71-16.9 755.58-16.2 756.46-15.5 759.01-14.35L759.01-14.35Q762.56-12.75 764.01-11.13 765.46-9.5 765.46-6.85L765.46-6.85Q765.46-3.4 763.31-1.45 761.16 0.5 757.46 0.5L757.46 0.5ZM817.53 0L817.53-5.25 822.48-5.25 822.48 0 817.53 0Z" opacity="1" transform="matrix(1,0,0,1,0,0)" fill="#ffbe79" class="slogan-text-1" data-fill-palette-color="quaternary" id="text-1"></path></svg></g></svg></g></svg></g></svg></g><g transform="matrix(1,0,0,1,79.23039790082797,0)"><svg viewBox="0 0 54.697645425501165 51.466680185846265" height="51.466680185846265" width="54.697645425501165"><g><svg xmlns="http://www.w3.org/2000/svg" xmlns:xlink="http://www.w3.org/1999/xlink" version="1.1" x="0" y="0" viewBox="-897.1 505.28928571428565 76.00000000000011 71.5107142857143" style="enable-background:new -909 491 100 100;" xml:space="preserve" height="51.466680185846265" width="54.697645425501165" class="icon-icon-0" data-fill-palette-color="quaternary" id="icon-0"><path d="M-835.6 507.5c-7.7-1.4-15.6-2.2-23.4-2.2-7.7-0.1-15.6 0.5-23.4 1.8-5.7 1-11.4 6.5-12.6 12.3-1.4 7.2-2.1 14.4-2.1 21.6s0.7 14.4 2.1 21.7c1.2 5.7 6.8 11.2 12.6 12.3 7.3 1.2 14.8 1.8 22.1 1.8 0.4 0 0.8 0 1.2 0 7.8-0.1 15.6-0.8 23.4-2.2 0 0 0 0 0 0 5.7-1.1 11.3-6.6 12.5-12.3 1.4-7 2.1-14.2 2.1-21.2 0-7-0.7-14.2-2.1-21.2C-824.3 514.1-829.9 508.6-835.6 507.5zM-830 560.8c-0.6 2.8-4 6.2-6.9 6.8-7.3 1.3-14.8 2.1-22.1 2.1-7.4 0.1-14.8-0.5-22.1-1.7-2.9-0.5-6.3-3.9-6.9-6.7-1.3-6.7-2-13.5-2-20.3 0-6.7 0.7-13.6 2-20.2 0.6-2.9 4-6.3 6.9-6.8 7-1.1 14-1.7 21-1.7 0.4 0 0.8 0 1.2 0 7.4 0.1 14.8 0.8 22.1 2.1 2.9 0.6 6.4 3.9 6.9 6.7 1.3 6.6 1.9 13.3 1.9 19.9C-828 547.6-828.7 554.3-830 560.8z" fill="#ffbe79" data-fill-palette-color="quaternary"></path><path d="M-841.4 526.3l-3.3-1.4c-1.8-0.8-3.8 0-4.6 1.8-0.8 1.8 0 3.8 1.8 4.6l3.3 1.4c0.5 0.2 0.9 0.3 1.4 0.3 1.3 0 2.6-0.8 3.2-2.1C-838.8 529.2-839.6 527.1-841.4 526.3z" fill="#ffbe79" data-fill-palette-color="quaternary"></path><path d="M-870.5 531.3c1.8-0.8 2.6-2.8 1.8-4.6-0.8-1.8-2.8-2.6-4.6-1.8l-3.3 1.4c-1.8 0.8-2.6 2.8-1.8 4.6 0.6 1.3 1.9 2.1 3.2 2.1 0.5 0 0.9-0.1 1.4-0.3L-870.5 531.3z" fill="#ffbe79" data-fill-palette-color="quaternary"></path><path d="M-842.6 547.6c-0.7-1.8-2.8-2.6-4.6-1.9l-11.2 4.6-11.1-4.7c-1.8-0.8-3.8 0.1-4.6 1.9-0.7 1.8 0.1 3.8 1.9 4.6l4.7 2-4.7 1.9c-1.8 0.7-2.6 2.8-1.9 4.6 0.6 1.4 1.9 2.2 3.2 2.2 0.4 0 0.9-0.1 1.3-0.3l11.2-4.6 11.1 4.7c0.4 0.2 0.9 0.3 1.4 0.3 1.4 0 2.7-0.8 3.2-2.1 0.7-1.8-0.1-3.8-1.9-4.6l-4.7-2 4.7-1.9C-842.8 551.4-841.9 549.4-842.6 547.6z" fill="#ffbe79" data-fill-palette-color="quaternary"></path></svg></g></svg></g><g></g></svg></g></svg></g></svg></g></svg></g><defs></defs></svg><rect width="342.85155851775386" height="342.85155851775386" fill="none" stroke="none" visibility="hidden"></rect></g></svg></g></svg>